<?xml version="1.0" encoding="utf-8"?>
<!-- Svg Vector Icons : http://www.onlinewebfonts.com/icon -->
<!DOCTYPE svg PUBLIC "-//W3C//DTD SVG 1.1//EN" "http://www.w3.org/Graphics/SVG/1.1/DTD/svg11.dtd">
<svg version="1.1" xmlns="http://www.w3.org/2000/svg" xmlns:xlink="http://www.w3.org/1999/xlink" x="0px" y="0px" viewBox="0 0 256 256" enable-background="new 0 0 256 256" xml:space="preserve">
<metadata> Svg Vector Icons : http://www.onlinewebfonts.com/icon </metadata>
<g><g><path fill="#FFFFFF" d="M241.8,219.2L175,152.3c10.5-15.1,16.2-33,16.2-51.8c0-24.2-9.4-46.9-26.5-64.1C147.5,19.4,124.8,10,100.6,10s-46.9,9.4-64.1,26.5C19.4,53.6,10,76.4,10,100.6s9.4,47,26.5,64.1c17.1,17.1,39.9,26.5,64.1,26.5c18.8,0,36.7-5.7,51.8-16.2l66.9,66.9c5.8,5.8,15.6,5.5,21.8-0.7C247.3,234.9,247.7,225.1,241.8,219.2z M149.6,149.6c-13.1,13.1-30.5,20.3-49,20.3c-18.5,0-35.9-7.2-49-20.3c-13.1-13.1-20.3-30.5-20.3-49s7.2-35.9,20.3-49c13.1-13.1,30.5-20.3,49-20.3s35.9,7.2,49,20.3c13.1,13.1,20.3,30.5,20.3,49C169.9,119.1,162.7,136.5,149.6,149.6z"/></g></g>
</svg>