<!--?xml version="1.0" encoding="utf-8"?-->
<!-- Svg Vector Icons : http://www.onlinewebfonts.com/icon -->

<svg version="1.1" xmlns="http://www.w3.org/2000/svg" xmlns:xlink="http://www.w3.org/1999/xlink" x="0px" y="0px" viewBox="0 0 256 256" enable-background="new 0 0 256 256" xml:space="preserve">
<metadata> Svg Vector Icons : http://www.onlinewebfonts.com/icon </metadata>
<g><g><g><path fill="#2960AB" data-title="Layer 0" xs="0" d="M123.9,10.9c-1.2,0.4-2.8,1.3-3.6,1.8c-1,0.7-6.6,11.3-18.1,34.3L85.4,80.3l-33.8,0.3l-33.8,0.3l-2.3,1.6c-4.5,2.9-6.5,8-5.1,13.1c0.6,2.3,3.3,5.2,28.9,30.8l28.3,28.3l-11.1,39c-6.2,21.5-11.1,39.7-11.1,40.4c0,7.5,7.6,13.2,14.8,11.1c0.9-0.3,16.6-10.4,34.8-22.5l33.1-22l33,22c18.1,12.1,33.8,22.2,34.8,22.5c7.2,2.1,14.8-3.6,14.8-11.1c0-0.8-5-19-11.1-40.4l-11.1-39l28.3-28.4c25.7-25.7,28.3-28.6,28.9-30.8c1.4-5.1-0.6-10.2-5.1-13.1l-2.3-1.6l-33.7-0.2l-33.7-0.2l-16.1-32.3c-8.9-17.7-16.6-32.9-17.2-33.8C134.9,11,128.2,9.3,123.9,10.9z"/></g></g></g>
</svg>